<svg xmlns="http://www.w3.org/2000/svg" viewBox="0 0 103.99 40.663" height="153.687" width="393.033"><path d="M14.787 40.458l-.762-.197-.561-.255-.561-.254-.921-.53-.92-.532-.297-.165-.296-.166-.762-.446-.762-.447-1.101-.633-1.1-.633-.847-.491-.847-.49-.381-.21-.381-.211-.677-.442-.678-.442-.404-.36-.404-.36-.374-.486-.375-.487-.304-.519-.304-.519-.212-.563-.212-.563-.115-.56-.114-.56-.05-.558-.052-.558-.006-1.74L0 24.341l.101-.538.101-.539.284-.602.283-.602.336-.446.335-.446.408-.427.408-.426.42-.333.42-.332 1.341-.797 1.342-.796h.069l.617-.368.617-.368 1.228-.706 1.227-.707 1.128-.661 1.127-.661h.053l1.005-.593 1.005-.592h.135l-.025 3.28-.025 3.281-.242.405-.243.404-.354.244-.354.244-2.79 1.586-2.79 1.586-.424.236-.423.236-.025 1.382-.024 1.382.093.38.093.382.228.332.228.333.55.354.55.355.774.435.773.434h.104l.002-1.714.002-1.715.083-.357.082-.357.228-.48.228-.481.428-.432.429-.433.611-.36.611-.359.278-.158.278-.158 1.539-.9 1.539-.9h.097v18.795l-.275-.004-.275-.004-.762-.197zm3.502-6.499l-.012-1.382-.01-1.719-.009-1.719.593-.318.592-.318.805-.473.804-.472.302-.168.301-.168 1.096-.634 1.095-.633.847-.49.846-.49 1.1-.632 1.102-.633 1.016-.594 1.016-.594.465-.339.466-.338.698-.702.699-.701v3.33l-.125.653-.125.652-.177.533-.178.533-.297.544-.297.545-.367.471-.366.472-.452.43-.452.43-.345.264-.345.263-1.433.822-1.433.823-.466.269-.466.27-1.397.806-1.397.808-1.058.614-1.058.615-.593.32-.593.318-.19.057-.19.057zm40.99-.535v-.212h1.18l.09-.169.09-.17h-.927l-.212-.19-.212-.19-.014-.212-.014-.212.01-.656.008-.656h.508v1.427l.117.118.118.117.306-.036.306-.036v-1.59h.508l.013 1.08.014 1.08-.014.169-.014.169-.216.19-.216.19h-1.43zm30.226 0v-.212h.305l.101-.101.102-.102v-2.252h.593v2.433l-.176.223-.175.223h-.75zm-51.562-.61l-.127-.047-.157-.137-.157-.137-.129-.25-.129-.248v-1.05l.187-.332.186-.331.184-.117.184-.116.953-.038.952-.037v.529H38.36l-.208.208-.208.208v1.096l.223.175.223.176h.909v-.678h-.847v-.508h1.44v1.694l-.91-.007-.911-.007-.127-.047zm2.418-.128l-.132-.189v-.256l.002-.256.062-.093.062-.094.185-.097.185-.097H41.752v-.26l-.129-.05-.129-.049-.57-.011-.569-.011v-.424l.55-.026.551-.026.28.052.28.052.164.165.165.164v1.694H40.492zm1.477-.447v-.212h-.921l-.056.089-.054.089.047.122.047.123h.937zm1.016-.424v-1.058H44.11l.134.133.133.133v.665h-.497l-.027-.232-.027-.233-.19-.027-.19-.027v1.705h-.593zm2.086.851l-.224-.207v-1.701h.587l.024.782.024.783.36.026.36.026v-1.618h.593v2.117h-1.5zm2.39-.032l-.27-.24-.036-.459-.037-.458.2-.293.198-.293.21-.058.212-.06.36-.007.36-.008v-.762h.592v2.879h-1.521zm1.196-.776v-.593h-.621l-.155.14-.155.14v.534l.106.136.106.136.169.04.17.04.19.01.19.01zm1.22.951l-.094-.062-.097-.185-.097-.185v-.358l.207-.207.208-.208h1.193v-.149l-.129-.107-.128-.107-.591.015-.591.015v-.514H51.024l.263.161.263.16.054.274.055.273v1.249l-.91-.001-.91-.001-.094-.062zm1.32-.57v-.212h-.921l-.055.089-.055.088.048.123.047.123h.936zm2.625-.797v-1.447l.825.006.826.006.296.106.297.107.185.272.184.273.056.445.056.445-.091.338-.091.338-.261.25-.26.25-1.011.028-1.011.028zm1.79.762l.2-.162V30.827l-.2-.162-.2-.162h-.913v1.863h.913zm1.313.515l-.14-.155.001-.29.001-.29.062-.092.063-.094.185-.097.185-.097H58.178v-.26l-.143-.055-.143-.054-.556-.006-.555-.006-.027-.233-.027-.233h1.459l.24.124.24.124.052.137.052.137V32.874h-1.836zm1.384-.48v-.212h-.836l-.055.089-.055.088.047.123.047.123h.852zm3.556.465l-.17-.169v-.516l.209-.207.208-.208h1.177l-.045-.17-.044-.169-.18-.007-.181-.007-.487.013-.487.013v-.52h1.363l.234.12.233.121.101.222.101.222v1.432h-1.862zm1.44-.465v-.212h-.921l-.056.089-.054.088.047.123.047.123h.937zm2.624-.805v-1.439h1.588l.263.053.264.052.203.204.204.204.034.235.035.236-.066.256-.067.256-.179.162-.179.162-.732.043-.733.042-.025.487-.025.487h-.585zm1.763-.158l.112-.071-.027-.282-.027-.282-.212-.053-.212-.053-.402.035-.402.035v.745l.53-.001.528-.001.112-.072zm1.116.54v-1.059h1.27l.17.17.169.169v.592h-.581l-.028-.232-.026-.233-.19-.027-.191-.027v1.705h-.593zm1.989.888l-.154-.17.012-.312.012-.312.13-.13.13-.13.634-.033.634-.032v-.24l-.126-.049-.126-.048-.573-.013-.572-.012-.028-.242-.028-.24.819.029.818.03.204.237.204.237v1.6H70.82zm1.398-.465v-.212h-.813l-.095.095-.095.095.045.117.044.116h.914zm1.439.465l-.17-.169V31.18h-.423v-.423h.424v-.773l.275.027.275.026.026.36.026.36h.499v.423h-.493l-.03.472-.028.471.06.164.061.163h.49l-.04.212-.04.212h-.742zm1.355 0l-.17-.169v-.489l.162-.2.162-.2.646-.042.647-.043-.115-.156-.115-.157-.63-.012-.63-.013V30.8l.61-.025.609-.025.28.07.28.07.131.294.132.293-.032.698-.033.699H75.027zm1.354-.465v-.212h-.836l-.055.089-.055.088.047.123.047.123h.852zm1.1-.424v-1.058H79.76l.212.096.211.097.089.255.089.255v1.414h-.586l-.025-.783-.024-.784-.317-.026-.318-.026V32.874h-.593v-1.609h-.592v1.609h-.593zm3.613.953l-.145-.106-.048-.298-.048-.298.156-.193.156-.193.17-.032.168-.031.487-.006.487-.006v-.244l-.093-.058-.093-.058-.627.012-.626.013v-.512h1.537l.247.247.248.248v1.622H81.07zm1.383-.53v-.21h-.402l-.402.001-.109.07-.108.068.054.141.054.142h.913v-.212zm2.625.382v-.254h1.744l.102-.102.101-.101v-.295l-.078-.049-.079-.048-.662-.033-.662-.033-.23-.105-.231-.106-.087-.262-.086-.263.038-.197.038-.198.054-.17.054-.17.286-.12.285-.119h1.868v.601l-.875-.017-.874-.019-.1.061-.098.061v.308l.106.087.106.086.738.03.739.03.18.18.182.182.043.386.044.387-.258.258-.258.258h-2.13zm3.208.016l-.267-.238-.038-.418-.04-.419.09-.232.09-.233.278-.17.277-.168h.572l.571-.001v.4l-.51.046-.512.046-.124.103-.124.103v.149h1.27v.423H88.5l-.042.067-.042.068.074.119.073.118.556.036.556.035v.404h-1.267l-.266-.238zm3.086.113l-.179-.125-.054-.215-.053-.214.125-.243.126-.243.137-.053.137-.052H92.553v-.244l-.102-.064-.103-.063-.617.02-.617.02v-.516h1.537l.247.247.248.248v1.622h-1.74zm1.326-.515v-.216l-.445.026-.444.025-.027.19-.027.191h.943zm1.035-.778l.023-1.419.275-.026.276-.027v.773h.921l.235.202.234.201.034.857.034.857h-.612v-1.406l-.101-.101-.102-.102h-.643v1.609h-.597zm2.812 1.298l-.164-.12-.03-.727-.03-.727h-.418l.028-.19.027-.19.19-.028.19-.027v-.75h.593v.762h.593v.423h-.593v1.168l.134.05.134.052h.325v.424h-.814zm1.48-.116l-.264-.235-.043-.381-.043-.381.133-.318.133-.318.297-.124.297-.124h1.02v.423l-.317.01-.317.01-.253.054-.253.055-.028.147-.029.148h1.26l-.041.211-.04.212h-1.166v.248l.163.088.164.087h.858v.424h-1.267zm1.87-.823v-1.058h1.27l.169.17.17.169v.592h-.593v-.508h-.424v1.694h-.592zm2 .902l-.142-.158-.012-.312-.012-.313.143-.142.142-.143.634-.032.633-.032v-.054l-.002-.054-.071-.113-.072-.113-.626-.014-.625-.014-.028-.241-.028-.242.819.03.818.03.204.237.204.238V32.874h-1.836l-.142-.157zm1.386-.478v-.212h-.84l-.085.158-.085.158.054.054.053.053h.903zm-13.123-1.99v-.254h.593v.508h-.593zm-46.16-2.67l-.026-.026-.54-.022-.54-.022-.577-.109-.575-.109-.515-.209-.514-.209-.523-.317-.523-.318-.479-.479-.48-.48-.255-.372-.256-.373-.212-.423-.212-.424-.212-.635-.21-.635-.117-.762-.116-.762.011-1.524.011-1.524.21-1.018.208-1.018.307-.708.307-.707.254-.391.255-.391.318-.346.319-.346.338-.258.339-.258.55-.3.55-.3.763-.216.762-.216.635-.078.635-.08 4.17-.008 4.17-.01v2.874l-4.298.025-4.296.026-.55.26-.551.26-.346.353-.346.353-.255.53-.255.53-.105.423-.104.423-.099.89-.099.888.053 1.143.052 1.143.144.544.144.544.24.472.24.472.325.326.326.326.315.162.315.16.486.128.486.126h4.621v-3.81h-4.614l.025-1.44.025-1.439h8.12v9.746l-4.102-.014-4.102-.014-.025-.026zm11.023-8.165v-8.218l4.255.008 4.254.008.55.078.55.079.67.168.67.168.685.335.685.334.437.365.436.364.348.423.348.424.33.635.33.635.214.762.213.762.056.38.055.382.07.592.07.593-.028 1.312-.03 1.313-.166.81-.167.809-.276.663-.276.664-.418.625-.418.625-.597.502-.597.502-.644.33-.644.328-.55.14-.551.14-.89.073-.888.072-4.043.016-4.043.016v-8.218zm9.151 5.092l.558-.182.357-.258.356-.259.253-.398.252-.398.167-.561.168-.561.095-.707.095-.707-.047-1.526-.047-1.527-.13-.573-.128-.573-.23-.51-.229-.512-.418-.375-.418-.376-.563-.186-.563-.186-2.604-.034-2.603-.034v10.7l2.56-.038 2.562-.038zm8.46-5.1v-8.222l4.932.041 4.932.041.635.129.635.128.482.181.483.182.508.397.509.398.29.38.29.382.208.38.208.382.135.423.135.423.06.381.06.381-.01.932-.008.931-.131.508-.13.508-.309.616-.308.616-.536.501-.535.501-.616.29-.616.29-.424.096-.423.096-.762.084-.762.084h-2.73l-2.729.001-.022 2.858-.022 2.857-1.715.023-1.714.023v-8.222zm8.805-.585l.381-.077.297-.124.297-.125.307-.298.307-.298.137-.402.137-.401v-1.149l-.175-.467-.175-.468-.297-.244-.297-.245-.438-.155-.438-.154-2.689-.032-2.688-.033v4.752l2.096.022 2.095.023.381-.024.381-.024zm7.853 8.755l-.063-.065V24.67l4.89-.029 4.889-.028.413-.14.414-.141.246-.235.245-.236.123-.425.123-.426-.043-.423-.044-.424-.052-.167-.052-.168-.179-.245-.178-.245-.381-.174-.381-.174-3.387-.062-3.387-.063-.423-.093-.423-.092-.575-.22-.575-.219-.408-.322-.408-.323-.184-.234-.184-.234-.243-.514-.242-.515-.097-.463-.097-.464V15.283l.142-.623.142-.622.254-.532.254-.532.492-.456.493-.456.448-.218.449-.217.508-.126.508-.127.717-.087.718-.088h9.614v2.957l-4.805.024-4.805.025-.48.225-.481.226-.217.327-.217.328-.074.396-.074.395.035.397.034.397.091.179.092.178.222.24.223.24.296.136.296.137 3.599.056 3.598.056.622.184.623.184.338.173.339.172.386.354.386.354.269.593.27.592.101.526.102.525-.002.872-.002.871-.08.466-.08.466-.136.378-.135.378-.202.344-.202.345-.414.387-.413.387-.565.27-.565.269-.743.176-.743.177-5.25.04-5.249.039-.063-.064zm-70.94-1.156l-.01-.87-.01-2.244-.012-2.243.15-.43.15-.428.316-.302.316-.302 3.217-1.825 3.217-1.824.154-.112.154-.111-.006-1.397-.006-1.397-.053-.297-.053-.296-.109-.212-.109-.211-.324-.303-.325-.302-.804-.466-.804-.466-.402-.23-.403-.23v3.702l-.135.46-.135.46-.174.296-.175.296-.304.325-.304.326-.35.243-.35.244-2.063 1.194-2.063 1.194-.08.079-.081.078h-.222l.002-9.41L16.017 0l.544.056.544.055.653.213.652.213.44.202.441.201.868.515.867.515h.057l1.128.662 1.127.66L24.566 4l1.228.707.617.368.616.368h.065l.663.392.663.391.381.26.381.261.454.427.454.428.403.508.402.508.303.592.303.593.164.423.165.424.14.826.142.827.017 2.179.017 2.18-.162.55-.162.55-.21.423-.21.423-.382.508-.382.508-.305.325-.304.325-.508.402-.508.403-1.312.766-1.313.767-.301.168-.302.168-1.117.645-1.116.646-1.08.624-1.079.624-.663.392-.663.392h-.068l-.544.333-.544.333-.346.176-.347.177zM.019 18.77l.013-1.517.08-.593.08-.593.174-.592.174-.593.243-.537.243-.538.396-.563.395-.563.607-.593.607-.593.587-.364.586-.365 1.186-.68 1.185-.682 1.1-.637 1.101-.637.847-.486.847-.487 1.034-.605 1.035-.605.602-.302.602-.302.057.056.056.057.028 3.083.028 3.083h-.235l-1.392.813-1.392.813-.339.19-.338.19-1.101.636-1.1.637-.847.49-.847.489-1.058.61-1.059.61-.835.482-.836.483-.646.474-.646.475-.617.637-.618.637z" fill="#fefefe"/></svg>